<svg id="Layer_1" data-name="Layer 1" xmlns="http://www.w3.org/2000/svg" viewBox="0 0 512 510.99"><defs><style>.cls-1{fill:#fff;}</style></defs><title>Instawork-logo-white</title><path class="cls-1" d="M473.33,270.47,512,240.69,469.91,216l30-38.46L453,164.08l19.54-44.72L423.8,118l7.8-48.18L384,80.62,379.57,32l-43.41,22.3-16.37-46-36.5,32.4L256,.29,228.71,40.75l-36.5-32.4-16.37,46L132.43,32,128,80.62,80.41,69.81,88.21,118l-48.79,1.37L59,164.08,12.05,177.53l30,38.46L0,240.69l38.66,29.78L4,304.86l44.85,19.23L23.9,366l48.23,7.47L58.36,420.3l48.57-4.76-1.7,48.77,45.86-16.69,10.48,47.66,40.27-27.57,22,43.56L256,474.56l32.15,36.72,22-43.56,40.27,27.57,10.48-47.66,45.86,16.69-1.7-48.77,48.57,4.76-13.78-46.82L488.09,366l-25-41.92L508,304.87ZM244.24,198.21l9.18-18.69a1.36,1.36,0,0,1,.66-.57l.82-.41q7.69-1.31,15.16-2.7T284.89,173a1.81,1.81,0,0,1,2,.57,1.69,1.69,0,0,1,0,2.22l-9.34,18.52a2.8,2.8,0,0,1-1.31,1.15q-7.54,1.31-15,2.79c-5,1-10,1.91-15,2.79a1.93,1.93,0,0,1-1.88-.74A1.7,1.7,0,0,1,244.24,198.21ZM95.51,246.88s-1.17,8.27-11.91,12.27c-6.4,2.39-10.79,1.72-13.29.8a1.63,1.63,0,0,1-.36-2.87l9.86-6.85a3.63,3.63,0,0,0,1.31-1.64,7.66,7.66,0,0,0-.89-7.53A7.79,7.79,0,0,0,73.84,238a6.57,6.57,0,0,0-4,1.24l-8.45,6a1.56,1.56,0,0,1-2-.14,2,2,0,0,1-.61-1.69,26.46,26.46,0,0,1,5.81-12.85c5.8-7.23,13.36-5.74,17.77-3.53a12.75,12.75,0,0,0,4.82,1.18,19.91,19.91,0,0,0,8.6-1.35L172.25,197a11.92,11.92,0,0,0,6-5.2,2,2,0,0,0,.11-.2,13.13,13.13,0,0,0,1.35-3.86c.95-4.89,5.73-7.45,13-8.86,4.5-.88,7-.48,8.3,0a1.36,1.36,0,0,1,.77,1.83,4.09,4.09,0,0,1-1.36,1.64L192.31,188a2,2,0,0,0-.81,2,12,12,0,0,0,2.43,5.51c1.69,1.93,5.09,2.7,6.83,3a2.71,2.71,0,0,0,1.92-.41l10.18-6.69a1.07,1.07,0,0,1,1.65,1.05c-.5,3.44-1.85,9.93-5.2,14.13-4.73,5.94-11.18,5.6-17.88,3a15.74,15.74,0,0,0-11-.52l-79.2,31a9.16,9.16,0,0,0-5.65,6.63C95.53,246.78,95.51,246.88,95.51,246.88Zm89.38,91.45a33.15,33.15,0,0,1-1.88,3.28c-.71,1.1-1.34,2.13-1.88,3.11a42.89,42.89,0,0,1-7.87,9.09,81,81,0,0,1-10,7.46,101.15,101.15,0,0,1-12,6.31,71.63,71.63,0,0,1-12.38,4.18,55.52,55.52,0,0,1-12.45,1.47,42.93,42.93,0,0,1-11.31-1.47,21.66,21.66,0,0,1-12.14-8,30.33,30.33,0,0,1-5.73-14.58,5.11,5.11,0,0,1-.17-1.23v-1.07a28.56,28.56,0,0,1,1.07-8,53,53,0,0,1,2.54-7q2.61-5.56,5.65-11.31t6.15-10.49q19-29.83,31.47-32c.66-.11,1.31-.19,2-.24s1.37-.09,2.13-.09q6.72,0,10.16,4.59t3.44,12.13A34.53,34.53,0,0,1,160,305.2q-1.65,5.08-3.61,9.67a43.11,43.11,0,0,1-10.9,14.34,52.08,52.08,0,0,1-16.31,9.26A2,2,0,0,1,126.7,336l6.72-20.65a2.82,2.82,0,0,1,2.29-1.48,21.93,21.93,0,0,0,2.79-.65,21.28,21.28,0,0,0,2.46-1l4.92-2.13q-1.65-9-6.56-9a14.61,14.61,0,0,0-1.72.08,5.67,5.67,0,0,0-1.55.41,32.81,32.81,0,0,0-14.92,11.8q-2.62,3.93-5.17,7.87c-1.69,2.62-3.31,5.35-4.83,8.2a8.86,8.86,0,0,0-1.15,4.26q0,4.75,6.72,10Q122,348,130.63,348h.82a63.1,63.1,0,0,0,14.43-1.64q4.43-1.14,8.44-2.3a71.42,71.42,0,0,0,8-2.78q4.09-1.8,6.72-2.79a27,27,0,0,0,3.77-1.64c1.53-.87,2.3-1.64,2.3-2.3v-.82l-4.43-59,12-20a2,2,0,0,1,2.13-.9,1.73,1.73,0,0,1,1.47,1.72l4.59,61.14a.67.67,0,0,0,.08.33,1.07,1.07,0,0,1,.09.49v1.15a28.51,28.51,0,0,1-1.89,10.82A88.82,88.82,0,0,1,184.89,338.33Zm80-9.51A110.32,110.32,0,0,1,261.78,340a100.46,100.46,0,0,1-4.35,11,41.57,41.57,0,0,1-5.16,8.52,40.6,40.6,0,0,1-13.69,10.16q-8.12,3.76-20.08,3.77H217c-6.22-.22-11.64-.55-16.22-1q-7.38-.65-9.67-2.78a3.34,3.34,0,0,1-.82-2.46,4.6,4.6,0,0,1,2-3.69,20.31,20.31,0,0,1,4.67-2.7q2.7-1.14,5-2l5.33-1.88c2-.71,4.24-1.45,6.64-2.21q9.34-3,18.45-6.39A86.61,86.61,0,0,0,249,340a29.07,29.07,0,0,0,10.16-12.29c.43-1.42,1.53-2.13,3.28-2.13,1.42.11,2.24,1,2.46,2.62v.65Zm83.59-10a45.48,45.48,0,0,1-2,12.37,64.1,64.1,0,0,1-4.27,10.58,71.5,71.5,0,0,1-9.09,13,63.89,63.89,0,0,1-12.37,11,40.91,40.91,0,0,1-15.08,6.31c-2.4.44-4.81.76-7.21,1s-5,.33-7.71.33h-1.64c-3.28,0-6.56-.17-9.83-.49s-6.5-.6-9.67-.82a2.59,2.59,0,0,1-2.62-2.79,3.3,3.3,0,0,1,1.48-2.95,209.92,209.92,0,0,1,26.55-12.29q14.1-5.4,27.7-11a30.5,30.5,0,0,0,11.15-7.71v-.16a.48.48,0,0,1-.17-.33v-1a10.59,10.59,0,0,0-.49-1.15,21,21,0,0,1-4.75.49q-7.22,0-10.16-3.61v.17a12.12,12.12,0,0,1-1.64-2.46,7.26,7.26,0,0,1-.65-3.28,13,13,0,0,1,1.56-6c1-2,1.93-3.79,2.7-5.33q2-4.26,3.93-8.27a31.61,31.61,0,0,1,4.92-7.3,6.14,6.14,0,0,1,4.26-2.13,7.85,7.85,0,0,1,4.18,1.15,15.82,15.82,0,0,1,3,2.3,26.63,26.63,0,0,1,7.87,19.34v1ZM367,212.6a71.18,71.18,0,0,1-4.92,7.19,41.25,41.25,0,0,1-5.93,6.11,32.32,32.32,0,0,1-12.67,6.81,89.27,89.27,0,0,1-16.65,3,1.5,1.5,0,0,1-1.58-.57,2.06,2.06,0,0,1-.38-1.7v-.06c-.63.32-1.26.69-1.95,1-2,.82-3.72,1.39-5.17,1.89a13,13,0,0,1-4,.76,3.31,3.31,0,0,1-2.14-.5c-1.77.76-3.34,1.51-4.73,2.14a32.07,32.07,0,0,1-5.23,1.77,8.67,8.67,0,0,1-2.84.5q-3.41,0-4.54-2.08a80.25,80.25,0,0,1-10,2.9c-3.72.88-7.25,1.7-10.65,2.46-1.39.44-3,1-4.67,1.39s-3.28,1-4.85,1.58a1.5,1.5,0,0,1-1.7-.44c-.06,0-.06,0-.13-.06s-.06,0-.13-.06a2,2,0,0,1-1.13-1.58,92.71,92.71,0,0,1-14.25,3.53c-5.3.94-10.53,1.7-15.63,2.21h-.45a1.72,1.72,0,0,1-.63-.13,3.76,3.76,0,0,1-.51-.38c-.06,0-.06,0-.12-.06a2,2,0,0,1-.38-1.7l.13-.57v-.06l-6.37-89.71,10.34-19a1.68,1.68,0,0,1,2-1,1.87,1.87,0,0,1,1.58,1.64l5.74,86.18c6-.63,11-1.32,15.07-2.08a66.34,66.34,0,0,0,7.63-1.83,35.74,35.74,0,0,0,4.85-1.76,15.8,15.8,0,0,0,5.93-6.94,2.56,2.56,0,0,1,2.4-1.45c1.45,0,2.14.95,2.14,2.77a11,11,0,0,1-.82,4.54c-.06.19-.19.38-.25.63.44-.06.88-.19,1.32-.25,2.9-.5,5.93-1.07,9.08-1.64,7.12-1.51,11.41-4.6,12.8-9.33.25-.32.5-.69.82-1.07a1.42,1.42,0,0,1,1.13-.57,1.91,1.91,0,0,1,1.58.82,4.83,4.83,0,0,1,.76,1.64l.32,1.64v1a15.63,15.63,0,0,1-.06,1.64c-.06.5-.13,1.07-.25,1.64a15.22,15.22,0,0,0,5.8-1.83,32,32,0,0,0,4.67-3.09,5.48,5.48,0,0,0,1.76-2.71,19.51,19.51,0,0,1,1.39-3.53,2.58,2.58,0,0,1,2.46-1.64,2,2,0,0,1,1.7.57,4.23,4.23,0,0,1,.57,1.58v1.64c0,.76,0,1.51-.06,2.27s-.13,1.51-.25,2.33a14.37,14.37,0,0,0,6.62-4,16.5,16.5,0,0,0,3.53-6.87h-.19a2.57,2.57,0,0,1,1.2-2c.76-.69,1.26-.95,1.64-.82a3.3,3.3,0,0,1,1.26.95,2.29,2.29,0,0,1,.69,1.64c-.38,3.85-.88,7.5-1.58,11,1.26-.19,2.33-.32,3.34-.44a53.53,53.53,0,0,0,8-1.64,32,32,0,0,0,7.25-3.34,76.73,76.73,0,0,0-1.7-7.5c-.69-2.46-1.51-5.17-2.4-8.07a1.5,1.5,0,0,1,.32-1.64l12.17-17.91a2.24,2.24,0,0,1,2-1.07,1.61,1.61,0,0,1,1.45,1.45,63.15,63.15,0,0,1,3.78,22.25C372.05,200.88,370.28,207.37,367,212.6Zm9-60.77c-1.1,1.42-2.18,2.79-3.27,4.1l-3.28,3.93L367,162.81c-.55.65-1.07,1.34-1.56,2.05s-1.29,1.72-2.38,3a1.82,1.82,0,0,1-1.31.74,1.78,1.78,0,0,1-1.48-.57l-11-10.33a1.69,1.69,0,0,1-.16-2.46q3.28-4.1,6.47-8t6.31-8a2.14,2.14,0,0,1,1.4-.82,1.7,1.7,0,0,1,1.56.49L375.7,149.2A2,2,0,0,1,376,151.83Zm16.89,75.23a1.72,1.72,0,0,1-2,.9,1.74,1.74,0,0,1-1.47-1.72l-4.59-67.86,12-19.18a2,2,0,0,1,2.13-.9,1.74,1.74,0,0,1,1.48,1.72l4.59,68Z" transform="translate(0 -0.29)"/></svg>