<?xml version="1.0" encoding="utf-8"?>
<!-- Generator: Adobe Illustrator 23.0.5, SVG Export Plug-In . SVG Version: 6.00 Build 0)  -->
<svg version="1.1" id="Layer_1" xmlns="http://www.w3.org/2000/svg" xmlns:xlink="http://www.w3.org/1999/xlink" x="0px" y="0px"
	 viewBox="0 0 512 512" style="enable-background:new 0 0 512 512;" xml:space="preserve">
<style type="text/css">
	.st0{fill:#FF2A00;}
</style>
<path class="st0" d="M473.33,270.47L512,240.69l-42.09-24.7l30.04-38.46l-46.91-13.45l19.54-44.72l-48.78-1.37l7.8-48.18L384,80.62
	l-4.43-48.6l-43.41,22.3L319.79,8.35l-36.5,32.4L256,0.29l-27.29,40.46l-36.5-32.4l-16.37,45.97l-43.41-22.3L128,80.62L80.41,69.81
	l7.8,48.18l-48.79,1.37l19.54,44.72l-46.91,13.45l30.04,38.46L0,240.69l38.66,29.78L4.04,304.86l44.85,19.23l-24.99,41.92
	l48.23,7.47L58.36,420.3l48.57-4.76l-1.7,48.77l45.86-16.69l10.48,47.66l40.27-27.57l22.01,43.56L256,474.56l32.15,36.72
	l22.01-43.56l40.27,27.57l10.48-47.66l45.86,16.69l-1.7-48.77l48.57,4.76l-13.78-46.82l48.23-7.47l-24.99-41.92l44.86-19.23
	L473.33,270.47z M244.24,198.21l9.18-18.69c0.11-0.22,0.33-0.41,0.66-0.57c0.33-0.17,0.6-0.3,0.82-0.41
	c5.13-0.87,10.19-1.77,15.16-2.7c4.97-0.93,9.91-1.88,14.83-2.87c0.76-0.22,1.42-0.02,1.96,0.57c0.55,0.6,0.55,1.34,0,2.22
	l-9.34,18.52c-0.22,0.44-0.66,0.82-1.31,1.15c-5.03,0.87-10.03,1.8-15,2.79c-4.98,0.99-9.97,1.91-15,2.79
	c-0.76,0.11-1.4-0.14-1.88-0.74C243.83,199.66,243.81,198.97,244.24,198.21z M95.51,246.88c0,0-1.17,8.27-11.91,12.27
	c-6.4,2.39-10.79,1.72-13.29,0.8c-1.23-0.46-1.44-2.12-0.36-2.87l9.86-6.85c0.59-0.41,1.05-0.98,1.31-1.64
	c0.62-1.56,1.28-4.54-0.89-7.53c-1.78-2.46-4.43-3.04-6.39-3.08c-1.42-0.03-2.82,0.41-3.97,1.24l-8.45,6.03
	c-0.61,0.43-1.43,0.37-1.97-0.14c-0.46-0.44-0.69-1.06-0.61-1.69c0.28-2.14,1.38-7.33,5.81-12.85c5.8-7.23,13.36-5.74,17.77-3.53
	c1.47,0.74,3.19,1.07,4.82,1.18c2.93,0.2,5.86-0.28,8.6-1.35l76.41-29.89c2.55-1,4.69-2.82,6.04-5.2c0.04-0.07,0.08-0.13,0.11-0.2
	c0.66-1.2,1.09-2.51,1.35-3.86c0.95-4.89,5.73-7.45,12.99-8.86c4.5-0.88,6.99-0.48,8.3,0c0.74,0.28,1.09,1.12,0.77,1.83
	c-0.3,0.66-0.77,1.22-1.36,1.64l-8.14,5.69c-0.64,0.44-0.95,1.22-0.81,1.98c0.27,1.43,0.92,3.78,2.43,5.51
	c1.69,1.93,5.09,2.7,6.83,2.98c0.67,0.11,1.35-0.04,1.92-0.41l10.18-6.69c0.78-0.51,1.79,0.14,1.65,1.05
	c-0.5,3.44-1.85,9.93-5.2,14.13c-4.73,5.94-11.18,5.6-17.88,2.95c-6.25-2.47-11.01-0.52-11.01-0.52l-79.2,30.99
	c-2.88,1.12-5.01,3.61-5.65,6.63C95.53,246.78,95.51,246.88,95.51,246.88z M184.89,338.33c-0.55,1.1-1.17,2.19-1.88,3.28
	c-0.71,1.1-1.34,2.13-1.88,3.11c-2.19,3.39-4.81,6.42-7.87,9.09c-3.06,2.68-6.39,5.17-10,7.46c-3.93,2.4-7.95,4.51-12.05,6.31
	c-4.09,1.8-8.23,3.2-12.38,4.18c-4.26,0.98-8.42,1.47-12.45,1.47c-3.93,0-7.71-0.49-11.31-1.47c-5.03-1.31-9.07-3.99-12.14-8.03
	c-3.06-4.04-4.97-8.9-5.73-14.58c-0.11-0.44-0.17-0.85-0.17-1.23c0-0.38,0-0.74,0-1.07c0-2.84,0.36-5.49,1.07-7.95
	c0.71-2.46,1.56-4.78,2.54-6.97c1.74-3.71,3.63-7.48,5.65-11.31c2.02-3.82,4.07-7.32,6.15-10.49
	c12.67-19.89,23.16-30.54,31.47-31.97c0.66-0.11,1.31-0.19,1.97-0.24c0.65-0.06,1.37-0.09,2.13-0.09c4.48,0,7.87,1.53,10.16,4.59
	c2.29,3.06,3.44,7.11,3.44,12.13c0,3.71-0.55,7.27-1.64,10.65c-1.1,3.39-2.3,6.62-3.61,9.67c-2.73,5.68-6.36,10.47-10.9,14.34
	c-4.53,3.88-9.97,6.96-16.31,9.26c-0.76,0.22-1.42,0.06-1.96-0.49c-0.55-0.54-0.71-1.2-0.49-1.96l6.72-20.65
	c0.33-0.76,1.09-1.26,2.29-1.48c1.2-0.22,2.13-0.43,2.79-0.65c0.98-0.33,1.8-0.66,2.46-0.98l4.92-2.13
	c-1.1-6.01-3.28-9.01-6.56-9.01c-0.65,0-1.23,0.02-1.72,0.08c-0.49,0.05-1.01,0.19-1.55,0.41c-6.34,2.62-11.32,6.56-14.92,11.8
	c-1.75,2.62-3.47,5.25-5.17,7.87c-1.69,2.62-3.31,5.35-4.83,8.2c-0.77,1.42-1.15,2.84-1.15,4.26c0,3.17,2.24,6.5,6.72,10
	c3.5,2.84,8.14,4.26,13.93,4.26c0.22,0,0.38,0,0.49,0c0.1,0,0.22,0,0.33,0c4.92,0,9.73-0.54,14.43-1.64
	c2.95-0.76,5.76-1.53,8.44-2.3c2.68-0.76,5.33-1.69,7.95-2.78c2.73-1.2,4.97-2.13,6.72-2.79c1.75-0.65,3.01-1.2,3.77-1.64
	c1.53-0.87,2.3-1.64,2.3-2.3v-0.82l-4.43-59.01l11.97-20c0.54-0.76,1.26-1.07,2.13-0.9c0.87,0.16,1.37,0.74,1.47,1.72l4.59,61.14
	c0,0.11,0.02,0.22,0.08,0.33c0.06,0.11,0.09,0.28,0.09,0.49c0,0.22,0,0.41,0,0.57c0,0.17,0,0.36,0,0.58c0,4.15-0.64,7.76-1.89,10.82
	C187.82,332.54,186.43,335.49,184.89,338.33z M264.89,328.82c-0.77,3.5-1.8,7.22-3.11,11.15c-1.31,3.93-2.76,7.6-4.35,10.98
	c-1.58,3.39-3.31,6.22-5.16,8.52c-3.72,4.26-8.28,7.65-13.69,10.16c-5.41,2.51-12.1,3.77-20.08,3.77h-1.48
	c-6.22-0.22-11.64-0.55-16.22-0.99c-4.92-0.43-8.14-1.36-9.67-2.78c-0.55-0.55-0.82-1.37-0.82-2.46c0-1.42,0.65-2.65,1.96-3.69
	c1.31-1.03,2.87-1.94,4.67-2.7c1.8-0.76,3.47-1.42,5-1.97c1.53-0.54,3.31-1.17,5.33-1.88c2.02-0.71,4.24-1.45,6.64-2.21
	c6.23-1.97,12.38-4.1,18.45-6.39c6.06-2.3,11.61-5.08,16.64-8.36c4.37-2.96,7.76-7.05,10.16-12.29c0.43-1.42,1.53-2.13,3.28-2.13
	c1.42,0.11,2.24,0.98,2.46,2.62V328.82z M348.48,318.82c-0.11,4.37-0.76,8.5-1.96,12.37c-1.21,3.89-2.62,7.41-4.27,10.58
	c-2.4,4.48-5.44,8.82-9.09,13.03c-3.66,4.21-7.79,7.87-12.37,10.98c-4.59,3.11-9.62,5.22-15.08,6.31c-2.4,0.44-4.81,0.76-7.21,0.99
	c-2.41,0.22-4.97,0.33-7.71,0.33c-0.44,0-0.71,0-0.82,0c-0.11,0-0.38,0-0.82,0c-3.28,0-6.56-0.17-9.83-0.49
	c-3.28-0.33-6.5-0.6-9.67-0.82c-1.75-0.22-2.62-1.15-2.62-2.79c0-1.31,0.49-2.29,1.48-2.95c8.3-4.59,17.15-8.69,26.55-12.29
	c9.4-3.6,18.63-7.27,27.7-10.98c4.48-1.86,8.19-4.43,11.15-7.71v-0.16c-0.11-0.11-0.17-0.22-0.17-0.33c0-0.22,0-0.41,0-0.57
	c0-0.16,0-0.29,0-0.41c-0.11-0.33-0.28-0.71-0.49-1.15c-1.42,0.33-3,0.49-4.75,0.49c-4.81,0-8.19-1.2-10.16-3.61v0.17
	c-0.65-0.76-1.2-1.58-1.64-2.46c-0.44-0.87-0.65-1.97-0.65-3.28c0-1.96,0.52-3.96,1.56-5.98c1.03-2.02,1.93-3.79,2.7-5.33
	c1.31-2.84,2.62-5.6,3.93-8.27c1.31-2.68,2.95-5.11,4.92-7.3c1.42-1.42,2.84-2.13,4.26-2.13c1.53,0,2.92,0.38,4.18,1.15
	c1.25,0.76,2.27,1.53,3.03,2.3c5.25,5.36,7.87,11.8,7.87,19.34V318.82z M367.01,212.6c-1.51,2.52-3.15,4.92-4.92,7.19
	c-1.77,2.21-3.72,4.29-5.93,6.11c-3.47,3.09-7.69,5.36-12.67,6.81c-4.98,1.45-10.53,2.46-16.65,3.03c-0.63,0.13-1.2-0.06-1.58-0.57
	c-0.38-0.5-0.5-1.07-0.38-1.7v-0.06c-0.63,0.32-1.26,0.69-1.95,1.01c-2.02,0.82-3.72,1.39-5.17,1.89c-1.51,0.5-2.84,0.76-4.03,0.76
	c-1.07,0-1.83-0.19-2.14-0.5c-1.77,0.76-3.34,1.51-4.73,2.14c-1.45,0.63-3.15,1.26-5.23,1.77c-1.14,0.38-2.02,0.5-2.84,0.5
	c-2.27,0-3.78-0.69-4.54-2.08c-2.96,1.07-6.3,2.08-10.02,2.9c-3.72,0.88-7.25,1.7-10.65,2.46c-1.39,0.44-2.96,0.95-4.67,1.39
	c-1.7,0.5-3.28,1.01-4.85,1.58c-0.63,0.25-1.2,0.06-1.7-0.44c-0.06,0-0.06,0-0.13-0.06c-0.06,0-0.06,0-0.13-0.06
	c-0.57-0.25-0.95-0.76-1.13-1.58c-4.16,1.45-8.89,2.58-14.25,3.53c-5.3,0.94-10.53,1.7-15.63,2.21c-0.06,0-0.06,0-0.13,0h-0.32
	c-0.25,0-0.44-0.06-0.63-0.13c-0.19-0.13-0.38-0.25-0.51-0.38c-0.06,0-0.06,0-0.12-0.06c-0.38-0.51-0.51-1.07-0.38-1.7l0.13-0.57
	v-0.06l-6.37-89.71l10.34-18.98c0.44-0.88,1.13-1.2,2.02-1.01c0.95,0.25,1.45,0.76,1.58,1.64l5.74,86.18
	c5.99-0.63,10.97-1.32,15.07-2.08c2.96-0.57,5.49-1.14,7.63-1.83c2.14-0.63,3.78-1.26,4.85-1.76c2.52-1.58,4.48-3.85,5.93-6.94
	c0.5-0.95,1.32-1.45,2.4-1.45c1.45,0,2.14,0.95,2.14,2.77c0,1.77-0.25,3.28-0.82,4.54c-0.06,0.19-0.19,0.38-0.25,0.63
	c0.44-0.06,0.88-0.19,1.32-0.25c2.9-0.5,5.93-1.07,9.08-1.64c7.12-1.51,11.41-4.6,12.8-9.33c0.25-0.32,0.5-0.69,0.82-1.07
	c0.31-0.38,0.69-0.57,1.13-0.57c0.69,0,1.2,0.32,1.58,0.82c0.38,0.57,0.63,1.07,0.76,1.64l0.32,1.64v1.01c0,0.5,0,1.07-0.06,1.64
	c-0.06,0.5-0.13,1.07-0.25,1.64c2.08-0.25,4.03-0.82,5.8-1.83c1.83-1.01,3.34-2.02,4.67-3.09c0.76-0.57,1.32-1.45,1.76-2.71
	c0.38-1.26,0.82-2.46,1.39-3.53c0.51-1.07,1.32-1.64,2.46-1.64c0.82,0,1.45,0.19,1.7,0.57c0.25,0.38,0.44,0.88,0.57,1.58v1.64
	c0,0.76,0,1.51-0.06,2.27c-0.06,0.76-0.13,1.51-0.25,2.33c2.84-0.88,5.04-2.21,6.62-3.97c1.58-1.77,2.77-4.03,3.53-6.87h-0.19
	c0.13-0.88,0.5-1.51,1.2-1.95c0.76-0.69,1.26-0.95,1.64-0.82c0.31,0.06,0.76,0.44,1.26,0.95c0.44,0.44,0.69,1.01,0.69,1.64
	c-0.38,3.85-0.88,7.5-1.58,11.03c1.26-0.19,2.33-0.32,3.34-0.44c2.96-0.38,5.61-0.95,8.01-1.64c2.33-0.69,4.73-1.83,7.25-3.34
	c-0.44-2.52-1.01-5.04-1.7-7.5c-0.69-2.46-1.51-5.17-2.4-8.07c-0.19-0.69-0.13-1.2,0.32-1.64l12.17-17.91
	c0.5-0.76,1.2-1.07,1.95-1.07c0.76,0.06,1.26,0.57,1.45,1.45c2.65,7.5,3.91,14.94,3.78,22.25
	C372.05,200.88,370.28,207.37,367.01,212.6z M376.02,151.83c-1.1,1.42-2.18,2.79-3.27,4.1c-1.1,1.31-2.19,2.62-3.28,3.93
	c-1.1,1.31-1.91,2.29-2.46,2.95c-0.55,0.65-1.07,1.34-1.56,2.05c-0.49,0.71-1.29,1.72-2.38,3.03c-0.33,0.44-0.77,0.68-1.31,0.74
	c-0.55,0.06-1.04-0.14-1.48-0.57l-10.98-10.33c-0.76-0.76-0.82-1.58-0.16-2.46c2.19-2.73,4.34-5.41,6.47-8.03
	c2.13-2.62,4.24-5.3,6.31-8.03c0.33-0.44,0.79-0.71,1.4-0.82c0.6-0.11,1.11,0.06,1.56,0.49l10.82,10.32
	C376.46,149.97,376.57,150.84,376.02,151.83z M392.91,227.06c-0.44,0.76-1.1,1.07-1.97,0.9c-0.87-0.17-1.37-0.74-1.47-1.72
	l-4.59-67.86l11.97-19.18c0.54-0.76,1.26-1.07,2.13-0.9c0.87,0.16,1.37,0.73,1.48,1.72l4.59,68.02L392.91,227.06z"/>
</svg>
